<svg width="144" height="117" viewBox="0 0 144 117" fill="none" xmlns="http://www.w3.org/2000/svg">
<g clip-path="url(#clip0)">
<path d="M38.4677 71.49C38.8277 75.45 39.0077 77.82 39.0077 78.6C39.0077 79.92 38.4677 80.58 37.3877 80.58C36.3077 80.58 35.7077 80.1 35.5877 79.14C35.5877 78.96 35.5277 78.51 35.4077 77.79C35.3477 77.07 35.2577 75.99 35.1377 74.55C35.0177 73.11 34.8977 71.76 34.7777 70.5L34.5077 70.41C31.3877 70.41 29.8277 72.24 29.8277 75.9C29.8277 78.6 31.2677 80.97 34.1477 83.01C37.0277 84.99 39.9677 85.98 42.9677 85.98C45.9677 85.98 49.4177 84.6 53.3177 81.84C52.1777 81.06 50.5577 79.86 48.4577 78.24C44.0177 74.76 40.6877 72.51 38.4677 71.49ZM33.8777 31.62C34.5377 31.62 35.0177 32.07 35.3177 32.97C35.6777 33.81 35.8577 34.65 35.8577 35.49C35.8577 36.33 36.5177 45.54 37.8377 63.12C39.8177 62.52 41.6777 62.22 43.4177 62.22C45.2177 62.22 47.0777 62.61 48.9977 63.39C50.9177 64.11 52.3877 64.8 53.4077 65.46C54.4277 66.12 56.0177 67.29 58.1777 68.97C60.3977 70.65 61.7777 71.67 62.3177 72.03C63.8777 69.21 64.6577 66.27 64.6577 63.21C64.6577 60.09 63.1877 56.1 60.2477 51.24C57.3677 46.32 53.8277 41.64 49.6277 37.2C45.4877 32.76 40.8377 28.95 35.6777 25.77C30.5177 22.59 25.9277 21 21.9077 21C18.8477 21 15.6977 22.53 12.4577 25.59C9.93766 28.29 8.13766 30.75 7.05766 32.97C6.75766 33.51 6.36766 33.78 5.88766 33.78C5.34766 33.78 4.89766 33.63 4.53766 33.33C4.11766 32.97 3.90766 32.58 3.90766 32.16L3.99766 31.53C5.49766 28.77 8.55766 25.2 13.1777 20.82C15.4577 18.6 18.0377 16.74 20.9177 15.24C23.8577 13.68 26.7077 12.9 29.4677 12.9C32.2877 12.9 35.5577 13.62 39.2777 15.06C42.9977 16.5 46.7177 18.6 50.4377 21.36C54.1577 24.06 57.5777 27.15 60.6977 30.63C63.8777 34.05 66.4277 38.01 68.3477 42.51C70.3277 46.95 71.3177 51.66 71.3177 56.64C71.3177 61.56 69.3677 67.35 65.4677 74.01C67.6877 75.27 69.8477 75.9 71.9477 75.9C72.6077 75.9 73.4777 75.54 74.5577 74.82C75.6377 74.04 76.3877 73.65 76.8077 73.65C77.6477 73.65 78.0677 74.07 78.0677 74.91C78.0677 76.59 76.3877 78.9 73.0277 81.84C69.7277 84.72 66.4577 86.16 63.2177 86.16C61.5377 86.16 59.5577 85.56 57.2777 84.36C49.3577 92.28 40.8077 96.24 31.6277 96.24C28.2677 96.24 25.6877 95.34 23.8877 93.54C22.1477 91.74 21.2777 89.13 21.2777 85.71C21.2777 82.29 22.4777 78.48 24.8777 74.28C27.2777 70.08 30.3977 66.9 34.2377 64.74C32.6177 46.92 31.7777 37.83 31.7177 37.47C31.7177 37.11 31.5077 36.78 31.0877 36.48C30.7277 36.12 30.5477 35.64 30.5477 35.04C30.5477 34.38 30.9377 33.66 31.7177 32.88C32.4977 32.04 33.2177 31.62 33.8777 31.62ZM100.87 71.49C101.23 75.45 101.41 77.82 101.41 78.6C101.41 79.92 100.87 80.58 99.79 80.58C98.71 80.58 98.11 80.1 97.99 79.14C97.99 78.96 97.93 78.51 97.81 77.79C97.75 77.07 97.66 75.99 97.54 74.55C97.42 73.11 97.3 71.76 97.18 70.5L96.91 70.41C93.79 70.41 92.23 72.24 92.23 75.9C92.23 78.6 93.67 80.97 96.55 83.01C99.43 84.99 102.37 85.98 105.37 85.98C108.37 85.98 111.82 84.6 115.72 81.84C114.58 81.06 112.96 79.86 110.86 78.24C106.42 74.76 103.09 72.51 100.87 71.49ZM96.28 31.62C96.94 31.62 97.42 32.07 97.72 32.97C98.08 33.81 98.26 34.65 98.26 35.49C98.26 36.33 98.92 45.54 100.24 63.12C102.22 62.52 104.08 62.22 105.82 62.22C107.62 62.22 109.48 62.61 111.4 63.39C113.32 64.11 114.79 64.8 115.81 65.46C116.83 66.12 118.42 67.29 120.58 68.97C122.8 70.65 124.18 71.67 124.72 72.03C126.28 69.21 127.06 66.27 127.06 63.21C127.06 60.09 125.59 56.1 122.65 51.24C119.77 46.32 116.23 41.64 112.03 37.2C107.89 32.76 103.24 28.95 98.08 25.77C92.92 22.59 88.33 21 84.31 21C81.25 21 78.1 22.53 74.86 25.59C72.34 28.29 70.54 30.75 69.46 32.97C69.16 33.51 68.77 33.78 68.29 33.78C67.75 33.78 67.3 33.63 66.94 33.33C66.52 32.97 66.31 32.58 66.31 32.16L66.4 31.53C67.9 28.77 70.96 25.2 75.58 20.82C77.86 18.6 80.44 16.74 83.32 15.24C86.26 13.68 89.11 12.9 91.87 12.9C94.69 12.9 97.96 13.62 101.68 15.06C105.4 16.5 109.12 18.6 112.84 21.36C116.56 24.06 119.98 27.15 123.1 30.63C126.28 34.05 128.83 38.01 130.75 42.51C132.73 46.95 133.72 51.66 133.72 56.64C133.72 61.56 131.77 67.35 127.87 74.01C130.09 75.27 132.25 75.9 134.35 75.9C135.01 75.9 135.88 75.54 136.96 74.82C138.04 74.04 138.79 73.65 139.21 73.65C140.05 73.65 140.47 74.07 140.47 74.91C140.47 76.59 138.79 78.9 135.43 81.84C132.13 84.72 128.86 86.16 125.62 86.16C123.94 86.16 121.96 85.56 119.68 84.36C111.76 92.28 103.21 96.24 94.03 96.24C90.67 96.24 88.09 95.34 86.29 93.54C84.55 91.74 83.68 89.13 83.68 85.71C83.68 82.29 84.88 78.48 87.28 74.28C89.68 70.08 92.8 66.9 96.64 64.74C95.02 46.92 94.18 37.83 94.12 37.47C94.12 37.11 93.91 36.78 93.49 36.48C93.13 36.12 92.95 35.64 92.95 35.04C92.95 34.38 93.34 33.66 94.12 32.88C94.9 32.04 95.62 31.62 96.28 31.62Z" fill="#6C63FE"/>
</g>
<defs>
<clipPath id="clip0">
<rect width="144" height="117" fill="white"/>
</clipPath>
</defs>
</svg>
